<svg id="Capa_1" data-name="Capa 1" xmlns="http://www.w3.org/2000/svg" viewBox="0 0 566.93 566.93"><title>Bobina</title><rect x="14.94" y="344.96" width="165.57" height="82.31" transform="translate(483.84 288.39) rotate(90)" style="fill:#7c7c7c"/><ellipse cx="113.25" cy="221.26" rx="56.68" ry="82.07" style="fill:#ce8525"/><rect x="56.57" y="221.26" width="82.31" height="164.86" style="fill:#ce8525"/><rect x="386.42" y="344.96" width="165.57" height="82.31" transform="translate(855.32 -83.09) rotate(90)" style="fill:#7c7c7c"/><rect x="35.24" y="160.51" width="207.29" height="82.31" rx="7.2" ry="7.2" transform="translate(340.55 62.79) rotate(90)" style="fill:#df9831"/><rect x="117.55" y="160.51" width="207.29" height="82.31" rx="6.4" ry="6.4" transform="translate(422.87 -19.52) rotate(90)" style="fill:#df9831"/><rect x="199.86" y="160.51" width="207.29" height="82.31" rx="8.35" ry="8.35" transform="translate(505.18 -101.84) rotate(90)" style="fill:#df9831"/><rect x="282.18" y="160.51" width="207.29" height="82.31" rx="7.8" ry="7.8" transform="translate(587.49 -184.15) rotate(90)" style="fill:#df9831"/><rect x="364.49" y="160.51" width="207.29" height="82.31" rx="8.13" ry="8.13" transform="translate(669.8 -266.46) rotate(90)" style="fill:#df9831"/><rect x="425.76" y="222.53" width="83.53" height="165.23" style="fill:#df9831"/></svg>