<svg id="Capa_1" data-name="Capa 1" xmlns="http://www.w3.org/2000/svg" viewBox="0 0 566.93 566.93"><title>Condensador</title><path d="M161.7,111.47H405.23a0,0,0,0,1,0,0V376.85a10.37,10.37,0,0,1-10.37,10.37H172.07a10.37,10.37,0,0,1-10.37-10.37V111.47A0,0,0,0,1,161.7,111.47Z" style="fill:#282828"/><rect x="160.53" y="417.76" width="122.87" height="61.09" transform="translate(670.27 226.33) rotate(90)" style="fill:#7c7c7c"/><rect x="282.7" y="417.76" width="122.87" height="61.09" transform="translate(792.44 104.16) rotate(90)" style="fill:#7c7c7c"/><rect x="191.43" y="130.45" width="62.56" height="256.41" style="fill:#fafafa"/><ellipse cx="283.46" cy="111.47" rx="122.83" ry="54.28" style="fill:#3d3d3d"/><ellipse cx="284.53" cy="109.93" rx="89.09" ry="39.37" style="fill:#e0e0df"/></svg>