<svg id="Capa_1" data-name="Capa 1" xmlns="http://www.w3.org/2000/svg" viewBox="0 0 566.93 566.93"><title>Resistencia</title><rect x="70.87" y="167.38" width="106.3" height="211.89" style="fill:#ebbb5d"/><rect x="389.76" y="167.38" width="106.3" height="211.89" style="fill:#ebbb5d"/><rect x="118.11" y="202.11" width="330.71" height="141.73" style="fill:#ebbb5d"/><polygon points="389.5 165.56 300.92 269.15 478.08 269.15 389.5 165.56" style="fill:#ebbb5d"/><polygon points="177.16 167.38 88.58 270.96 265.75 270.96 177.16 167.38" style="fill:#ebbb5d"/><polygon points="177.16 167.38 88.58 270.96 265.75 270.96 177.16 167.38" style="fill:#ebbb5d"/><polygon points="389.76 379.91 478.35 276.32 301.18 276.32 389.76 379.91" style="fill:#ebbb5d"/><polygon points="177.16 379.91 265.75 276.32 88.58 276.32 177.16 379.91" style="fill:#ebbb5d"/><rect y="237.54" width="70.87" height="70.87" style="fill:#7c7c7c"/><rect x="496.06" y="237.54" width="70.87" height="70.87" style="fill:#7c7c7c"/><rect x="424.38" y="167.38" width="37.06" height="211.89" style="fill:#ebbb29"/><rect x="105.49" y="167.38" width="37.06" height="212.53" style="fill:#3e93d3"/><rect x="211.78" y="202.14" width="37.06" height="141.41" style="fill:#c7314b"/><rect x="318.08" y="202.14" width="37.06" height="141.69" style="fill:#439d5f"/></svg>