<svg xmlns="http://www.w3.org/2000/svg" viewBox="0 0 1296 1728">
  <title>IconAppCirc</title>
  <g id="Componente">
    <path
      d="M45.22,286V259.82a20.33,20.33,0,0,1,2.19-.23q25.52,0,51,0h1.87V174.5H47.59c-.79,0-1.58-.12-2.37-.18V148.14a18.27,18.27,0,0,1,2.18-.27q25.53,0,51.05,0h2v-1.78c0-2.93-.08-5.86,0-8.78a61.67,61.67,0,0,1,.61-7.45c2.79-17.26,18.31-30.76,35.77-31.17,3-.08,6.06,0,9.09,0,.52,0,1,0,1.73-.09v-56h26.49c0,.69.09,1.38.09,2.07V69.31q0,13.72,0,27.43c0,.61.06,1.22.09,1.81h85v-2q0-20.82,0-41.63,0-6.23,0-12.44h26.48c.05.74.15,1.48.15,2.22q0,25.9,0,51.83c0,.66.06,1.33.1,2.07,2,0,3.79,0,5.6,0A38.71,38.71,0,0,1,302.55,100a37.69,37.69,0,0,1,27.65,33.58c.28,4.13.14,8.28.2,12.43v1.88h52.91l2.07,0v26.49c-.68.06-1.36.18-2.05.18H330.5v85.08H384c.48,0,.95,0,1.43-.06v26.8c-.32,0-.63-.08-.95-.08H332c-.46,0-.93,0-1.56.09,0,1.51,0,2.93,0,4.35a36.48,36.48,0,0,1-4.15,17.19c-6.9,12.73-17.59,19.69-32.09,20.62-2.22.14-4.46,0-6.69.07-.46,0-.91.08-1.49.13v2q0,24.89,0,49.76c0,.74-.1,1.48-.15,2.22H259.34c0-.75,0-1.49,0-2.23V330.53c0-.62,0-1.23-.07-1.81-2.35-.34-83.79-.23-85.06.13v51.6c0,.74-.06,1.48-.09,2.23H147.65v-52c0-.58,0-1.16-.07-1.75a.24.24,0,0,0-.05-.14,2.21,2.21,0,0,0-.34-.24c-.68,0-1.58,0-2.47,0-3.88-.11-7.81.16-11.62-.43-15-2.34-25.17-10.84-30.55-25a36,36,0,0,1-2.12-13.31c0-1.14,0-2.29,0-3.56h-53A20.51,20.51,0,0,1,45.22,286Z"
    />
  </g>
  <g id="Cable">
    <path
      d="M383.67,944.31V894.25H306v8c-47.23,2.8-83,13-106.2,30.32-20.43,15.23-30.53,35.23-30,59.46.49,23.64,8.23,42.15,23.65,56.58,13.21,12.37,29.88,19.62,44.58,26,29.21,12.71,46.84,20.38,40.26,59.43-2.67,15.86-11.47,28.12-26.89,37.47-34.57,20.94-92.43,22.39-130.25,20.63v-9.85H43.51v50.06h77.65v-8.18c6.77.28,14.1.45,21.8.45,41.77,0,94.68-5.2,131.19-27.29,24-14.52,38.26-34.33,42.39-58.88,4.53-26.91-.17-47.69-14.39-63.54-12.52-14-30.38-21.73-46.14-28.58-27.22-11.84-46.88-20.39-47.6-54.86-.31-14.76,5.32-26.26,17.22-35.14,18.81-14.05,50.8-20,80.4-22v10Z"
    />
  </g>
  <g id="Mover">
    <polygon
      points="358.47 658.29 384.03 638.08 358.47 617.88 358.47 617.86 358.45 617.86 299.9 571.57 299.9 617.86 234.21 617.86 234.21 552.89 279.93 552.89 234.21 493.61 234.21 492.05 233 492.05 214.24 467.72 195.47 492.05 194.26 492.05 194.26 493.61 148.54 552.89 194.26 552.89 194.26 617.86 128 617.86 128 571.57 43.87 638.08 128 704.6 128 658.3 194.26 658.3 194.26 722.7 148.54 722.7 194.26 781.98 194.26 784.12 195.91 784.12 214.24 807.87 232.56 784.12 234.21 784.12 234.21 781.98 279.93 722.7 234.21 722.7 234.21 658.3 299.9 658.3 299.9 704.6 358.45 658.3 358.47 658.3 358.47 658.29"
    />
  </g>
  <g id="Reiniciar">
    <rect x="491.68" y="488.98" width="297.64" height="297.64" />
  </g>
  <g id="Pause">
    <rect x="1104.16" y="488.98" width="110.35" height="297.64" />
    <rect x="916.88" y="488.98" width="110.35" height="297.64" />
  </g>
  <g id="Mouse">
    <path
      d="M799.66,294l-124.18-8.26c3.26,10.58,6.45,20.94,9.69,31.49l-45.93,14.15c-3.29-10.66-6.55-21.22-9.86-32l-95.18,78c13.21-110.45,26.39-220.6,39.61-331.1Z"
    />
  </g>
  <g id="Play">
    <polygon points="1214.51 212.6 916.88 63.78 916.88 361.42 1214.51 212.6" />
  </g>
</svg>
